<svg width="72" height="72" viewBox="0 0 72 72" fill="none" xmlns="http://www.w3.org/2000/svg">
<path d="M36 21C36 17.8174 34.7357 14.7652 32.4853 12.5147C30.2348 10.2643 27.1826 9 24 9H6V54H27C29.3869 54 31.6761 54.9482 33.364 56.636C35.0518 58.3239 36 60.6131 36 63M36 21V63M36 21C36 17.8174 37.2643 14.7652 39.5147 12.5147C41.7652 10.2643 44.8174 9 48 9H66V54H45C42.6131 54 40.3239 54.9482 38.636 56.636C36.9482 58.3239 36 60.6131 36 63" stroke="var(--color-icon-stroke)" stroke-width="6" stroke-linecap="round" stroke-linejoin="round"/>
</svg>
