<svg width="48" height="48" viewBox="0 0 48 48" fill="none" xmlns="http://www.w3.org/2000/svg">
<path d="M34 26L26 44C24.4087 44 22.8826 43.3679 21.7574 42.2426C20.6321 41.1174 20 39.5913 20 38V30H8.68C8.10018 30.0066 7.52587 29.887 6.99686 29.6496C6.46784 29.4121 5.99677 29.0625 5.61628 28.625C5.2358 28.1874 4.95499 27.6724 4.79332 27.1155C4.63165 26.5586 4.59298 25.9733 4.68 25.4L7.44 7.4C7.58465 6.44619 8.06913 5.57679 8.80419 4.95199C9.53925 4.32719 10.4753 3.98909 11.44 4H34M34 26V4M34 26H39.34C40.4719 26.02 41.5718 25.6237 42.4308 24.8864C43.2899 24.149 43.8483 23.1219 44 22V8C43.8483 6.87812 43.2899 5.851 42.4308 5.11364C41.5718 4.37627 40.4719 3.97998 39.34 4H34" stroke="var(--rv-color-icon-stroke, #1E1E1E)" stroke-width="4" stroke-linecap="round" stroke-linejoin="round"/>
</svg>
